<?xml version="1.0" encoding="UTF-8"?>
<svg version="1.1" xmlns="http://www.w3.org/2000/svg" width="61" height="51">
<path d="M0 0 C20.13 0 40.26 0 61 0 C61 16.83 61 33.66 61 51 C40.87 51 20.74 51 0 51 C0 34.17 0 17.34 0 0 Z " fill="#020D1B" transform="translate(0,0)"/>
<path d="M0 0 C12.87111558 -0.42432249 12.87111558 -0.42432249 17 3 C17.5234375 5.12109375 17.5234375 5.12109375 17.375 7.4375 C17.34148438 8.19933594 17.30796875 8.96117187 17.2734375 9.74609375 C17 12 17 12 16.41796875 14.08203125 C15.77418475 17.03621764 16.93605756 19.24626662 18 22 C15.69 22 13.38 22 11 22 C10.319375 20.5459375 10.319375 20.5459375 9.625 19.0625 C8.34213779 15.92920418 8.34213779 15.92920418 6 15 C6 17.31 6 19.62 6 22 C4.02 22 2.04 22 0 22 C0 14.74 0 7.48 0 0 Z " fill="#F4BB01" transform="translate(34,14)"/>
<path d="M0 0 C2.31 0 4.62 0 7 0 C7.4803318 1.58298026 7.95921612 3.16639978 8.4375 4.75 C8.83775391 6.07257812 8.83775391 6.07257812 9.24609375 7.421875 C9.88302113 9.59996864 10.44961145 11.79844581 11 14 C12.32 9.38 13.64 4.76 15 0 C17.31 0 19.62 0 22 0 C20.47536437 7.49612516 18.31993846 14.71359134 16 22 C13.03 22 10.06 22 7 22 C6.01658385 19.27229834 5.03814947 16.54297895 4.0625 13.8125 C3.78470703 13.04357422 3.50691406 12.27464844 3.22070312 11.48242188 C1.86499768 7.67664634 0.63433732 4.0067636 0 0 Z " fill="#EFB701" transform="translate(10,14)"/>
<path d="M0 0 C2.475 0.495 2.475 0.495 5 1 C4.67 2.32 4.34 3.64 4 5 C2.68 5 1.36 5 0 5 C0 3.35 0 1.7 0 0 Z " fill="#0C141A" transform="translate(40,19)"/>
</svg>
